<svg xmlns="http://www.w3.org/2000/svg" viewBox="0 0 96 80" width="96" height="80" shape-rendering="crispEdges" style="color-scheme:light dark;background:transparent"><g><rect x="24" y="28" width="48" height="32" fill="#D97757"/><rect x="20" y="32" width="4" height="20" fill="#D97757"/><rect x="72" y="32" width="4" height="20" fill="#D97757"/><rect x="28" y="60" width="4" height="8" fill="#D97757"/><rect x="40" y="60" width="4" height="8" fill="#D97757"/><rect x="52" y="60" width="4" height="8" fill="#D97757"/><rect x="64" y="60" width="4" height="8" fill="#D97757"/><rect x="16" y="40" width="4" height="8" fill="#B85F43"><animate attributeName="y" values="40;44;40" dur="0.2s" begin="0s" repeatCount="indefinite"/></rect><rect x="76" y="40" width="4" height="8" fill="#B85F43"><animate attributeName="y" values="40;44;40" dur="0.2s" begin="0.1s" repeatCount="indefinite"/></rect><rect x="36" y="36" width="4" height="8" fill="#2B2B2B"><animate attributeName="height" values="8;8;2;8" keyTimes="0;0.92;0.96;1" dur="3.2s" repeatCount="indefinite"/></rect><rect x="56" y="36" width="4" height="8" fill="#2B2B2B"><animate attributeName="height" values="8;8;2;8" keyTimes="0;0.92;0.96;1" dur="3.2s" repeatCount="indefinite"/></rect></g><rect x="20" y="60" width="56" height="8" fill="#4B5058"/><rect x="24" y="60" width="4" height="4" fill="#4ADE80"><animate attributeName="x" values="24;68" dur="1s" begin="0s" repeatCount="indefinite"/></rect><rect x="12" y="56" width="4" height="4" fill="#4ADE80"><animate attributeName="y" values="56;8" dur="1.2s" begin="0s" repeatCount="indefinite"/><animate attributeName="opacity" values="1;0" dur="1.2s" begin="0s" repeatCount="indefinite"/></rect><rect x="32" y="56" width="4" height="4" fill="#4ADE80"><animate attributeName="y" values="56;8" dur="1.2s" begin="0.3s" repeatCount="indefinite"/><animate attributeName="opacity" values="1;0" dur="1.2s" begin="0.3s" repeatCount="indefinite"/></rect><rect x="52" y="56" width="4" height="4" fill="#4ADE80"><animate attributeName="y" values="56;8" dur="1.2s" begin="0.6s" repeatCount="indefinite"/><animate attributeName="opacity" values="1;0" dur="1.2s" begin="0.6s" repeatCount="indefinite"/></rect><rect x="72" y="56" width="4" height="4" fill="#4ADE80"><animate attributeName="y" values="56;8" dur="1.2s" begin="0.8999999999999999s" repeatCount="indefinite"/><animate attributeName="opacity" values="1;0" dur="1.2s" begin="0.8999999999999999s" repeatCount="indefinite"/></rect></svg>
